<?xml version="1.0" encoding="UTF-8"?>
<svg width="300px" height="101px" viewBox="0 0 300 101" version="1.1" xmlns="http://www.w3.org/2000/svg" xmlns:xlink="http://www.w3.org/1999/xlink">
    <!-- Generator: Sketch 58 (84663) - https://sketch.com -->
    <title>Group</title>
    <desc>Created with Sketch.</desc>
    <g id="Page-1" stroke="none" stroke-width="1" fill="none" fill-rule="evenodd">
        <g id="02StyleGuide_Filmaps" transform="translate(-877.000000, -3450.000000)" fill="#FFFFFF">
            <g id="Group" transform="translate(877.616387, 3449.622887)">
                <path d="M40.5232129,100.429113 C40.5162129,89.1391133 39.8552129,77.7471133 38.5072129,66.2941133 C37.0492129,66.6191133 35.5802129,66.9171133 34.0942129,67.1791133 C32.6082129,67.4411133 31.1262129,67.6641133 29.6452129,67.8561133 C32.2952129,79.0801133 35.5712129,90.0121133 39.4252129,100.623113 C39.6412129,101.217113 40.5232129,101.061113 40.5232129,100.429113" id="Fill-188"></path>
                <path d="M50.7063129,53.2763133 C48.7973129,53.9003133 47.6663129,54.2433133 45.7113129,54.7933133 C45.5043129,54.8513133 45.2883129,54.7333133 45.2253129,54.5273133 C44.6433129,52.6403133 44.3023129,51.5353133 43.7223129,49.6543133 C43.6563129,49.4403133 43.7803129,49.2133133 43.9963129,49.1533133 C45.8263129,48.6503133 46.8953129,48.3323133 48.6983129,47.7583133 C48.9003129,47.6943133 49.1173129,47.8003133 49.1903129,47.9993133 C49.8743129,49.8443133 50.2753129,50.9233133 50.9563129,52.7603133 C51.0343129,52.9713133 50.9203129,53.2063133 50.7063129,53.2763133 M40.2693129,56.2103133 C38.2803129,56.6883133 37.1063129,56.9443133 35.0773129,57.3423133 C34.8623129,57.3843133 34.6533129,57.2453133 34.6103129,57.0303133 C34.2213129,55.0873133 33.9933129,53.9473133 33.6043129,52.0053133 C33.5613129,51.7893133 33.7023129,51.5783133 33.9183129,51.5363133 C35.8193129,51.1653133 36.9273129,50.9263133 38.7983129,50.4833133 C39.0083129,50.4343133 39.2193129,50.5613133 39.2733129,50.7703133 C39.7723129,52.6873133 40.0643129,53.8103133 40.5613129,55.7233133 C40.6173129,55.9393133 40.4863129,56.1583133 40.2693129,56.2103133 M25.9023129,6.3543133 C25.8713129,6.1383133 26.0203129,5.9383133 26.2353129,5.9053133 C28.3223129,5.5793133 29.5373129,5.4163133 31.6083129,5.1823133 C31.8353129,5.1563133 32.0383129,5.3273133 32.0513129,5.5553133 C32.1673129,7.5263133 32.2353129,8.6863133 32.3523129,10.6703133 C32.3643129,10.8803133 32.2103129,11.0643133 32.0013129,11.0883133 C30.0983129,11.3123133 28.9813129,11.4653133 27.0803129,11.7653133 C26.8603129,11.7993133 26.6553129,11.6473133 26.6233129,11.4283133 C26.3453129,9.4683133 26.1813129,8.3183133 25.9023129,6.3543133 M36.8953092,10.1603133 C36.9083129,8.1933133 36.9153129,7.0323133 36.9283129,5.0473133 C36.9303129,4.8393133 37.0903129,4.6683133 37.2973129,4.6523133 C39.3693129,4.5013133 40.3303129,4.4503133 42.3673129,4.3873133 C42.6053129,4.3803133 42.7973129,4.5843133 42.7763129,4.8213133 C42.6053129,6.7753133 42.5043129,7.9303133 42.3313129,9.9113133 C42.3133129,10.1103133 42.1503129,10.2663133 41.9513129,10.2743133 C40.0643129,10.3533133 39.2003129,10.4083133 37.3273129,10.5603133 C37.0943129,10.5793133 36.8943129,10.3933133 36.8953092,10.1603133 M21.7463129,12.7053133 C19.8563129,13.0743133 18.7543129,13.3123133 16.8903129,13.7533133 C16.6853129,13.8013133 16.4783129,13.6813133 16.4173129,13.4793133 C15.8493129,11.5753133 15.5163129,10.4633133 14.9503129,8.5703133 C14.8853129,8.3523133 15.0173129,8.1223133 15.2393129,8.0683133 C17.2653129,7.5793133 18.4623129,7.3183133 20.5353129,6.9103133 C20.7483129,6.8683133 20.9573129,7.0053133 21.0013129,7.2183133 C21.4113129,9.1583133 21.6513129,10.2953133 22.0603129,12.2333133 C22.1053129,12.4493133 21.9643129,12.6633133 21.7463129,12.7053133 M29.7963129,57.8793133 C29.8303129,58.0953133 29.6813129,58.2983133 29.4643129,58.3323133 C27.4213129,58.6513133 26.2313129,58.8123133 24.1983129,59.0443133 C23.9773129,59.0693133 23.7783129,58.9083133 23.7573129,58.6863133 C23.5703129,56.7183133 23.4603129,55.5643133 23.2733129,53.5913133 C23.2533129,53.3773133 23.4083129,53.1843133 23.6233129,53.1593133 C25.5323129,52.9353133 26.6553129,52.7813133 28.5683129,52.4803133 C28.7853129,52.4453133 28.9893129,52.5953133 29.0223129,52.8123133 C29.3223129,54.7713133 29.4973129,55.9193133 29.7963129,57.8793133 M11.7053129,15.0783133 C9.89331289,15.5763133 9.06131289,15.8203133 7.26231289,16.3913133 C7.07131289,16.4513133 6.86531289,16.3603133 6.78031289,16.1793133 C5.94031289,14.3773133 5.45031289,13.3263133 4.62131289,11.5493133 C4.52031289,11.3333133 4.63131289,11.0763133 4.85731289,11.0013133 C6.79331289,10.3633133 7.71331289,10.0823133 9.71231289,9.5173133 C9.91231289,9.4603133 10.1213129,9.5673133 10.1933129,9.7613133 C10.8853129,11.6233133 11.2893129,12.7113133 11.9733129,14.5543133 C12.0543129,14.7733133 11.9303129,15.0163133 11.7053129,15.0783133 M18.7113129,54.0643133 C18.8103129,56.0293133 18.8673129,57.1853133 18.9663129,59.1573133 C18.9773129,59.3723133 18.8143129,59.5573133 18.5993129,59.5733133 C16.5743129,59.7253133 15.3933129,59.7893133 13.3873129,59.8573133 C13.1623129,59.8643133 12.9753129,59.6823133 12.9763089,59.4563133 C12.9883129,57.4983133 12.9953129,56.3473133 13.0063129,54.3793133 C13.0083129,54.1673133 13.1753129,53.9933133 13.3873129,53.9853133 C15.2773129,53.9073133 16.3913129,53.8393133 18.2823129,53.6873133 C18.5063129,53.6693133 18.7003129,53.8403133 18.7113129,54.0643133 M60.5763129,52.5023133 L59.4553129,50.0973133 C58.2223129,50.5913133 57.1323129,51.0163133 55.9553129,51.4513133 C55.7563129,51.5253133 55.5323129,51.4293133 55.4503129,51.2343133 C54.6903129,49.4333133 54.2453129,48.3783133 53.4903129,46.5893133 C53.4013129,46.3793133 53.5093129,46.1363133 53.7243129,46.0593133 C54.8583129,45.6523133 55.5513129,45.3933133 56.7513129,44.9273133 C55.3263129,43.1893133 53.2473129,42.0623133 50.9503129,41.8603133 L48.7213129,41.6643133 C46.3963129,36.6233133 44.4653129,31.3173133 42.9803129,25.7723133 C42.3683129,23.4873133 41.8423129,21.1993133 41.3993129,18.9123133 C39.9943129,18.6043133 38.5773129,18.3203133 37.1473129,18.0683133 C34.3243129,17.5703133 31.5073129,17.1943133 28.7033129,16.9323133 C32.7273129,16.2723133 36.7443129,15.7083133 40.7553129,15.2243133 C40.7553129,15.2223133 40.7543129,15.2193133 40.7543129,15.2163133 L42.9243129,14.2043133 C44.7493129,13.3523133 45.9813129,11.5913133 46.1573129,9.5853133 L46.7603129,2.6823133 C46.8303129,1.8873133 46.2273129,1.1953133 45.4303129,1.1503133 C43.4973129,1.0413133 41.5523129,0.988313296 39.5973129,0.9947 C34.0203129,1.0153133 28.3703129,1.5053133 22.6903129,2.5063133 C17.0113129,3.5073133 11.5343129,4.9803133 6.28731289,6.8693133 C4.44831289,7.5313133 2.63831289,8.2463133 0.858312891,9.0093133 C0.125312891,9.3243133 -0.204687109,10.1813133 0.132312891,10.9043133 L3.06031289,17.1843133 C3.91231289,19.0093133 5.67231289,20.2423133 7.67831289,20.4193133 L10.0633129,20.6283133 C10.7543129,24.1193133 11.2653129,27.6823133 11.5823129,31.3083133 C12.0823129,37.0253133 12.0823129,42.6763133 11.6233129,48.2083133 L9.59831289,49.1523133 C7.48631289,50.1373133 5.90631289,51.9343133 5.17131289,54.0853133 C6.26831289,54.1073133 6.98131289,54.1123133 8.08331289,54.1073133 C8.31131289,54.1063133 8.49631289,54.2973133 8.48431289,54.5253133 C8.38631289,56.4643133 8.32931289,57.6083133 8.23131289,59.5593133 C8.22031289,59.7723133 8.04331289,59.9383133 7.83131289,59.9373133 C6.53931289,59.9303133 5.75631289,59.9153133 4.41431289,59.8723133 L4.18931289,62.4443133 C4.12231289,63.2103133 4.68131289,63.8863133 5.44631289,63.9703133 C6.60131289,64.0963133 7.76031289,64.2023133 8.92431289,64.2883133 C16.9173129,64.8763133 25.1113129,64.4993133 33.3653129,63.0433133 C41.6193129,61.5883133 49.4473129,59.1403133 56.7573129,55.8543133 C57.8223129,55.3753133 58.8753129,54.8793133 59.9173129,54.3653133 C60.6073129,54.0253133 60.9013129,53.1983133 60.5763129,52.5023133" id="Fill-190"></path>
                <path d="M184.543613,4.3876133 C184.235613,4.3876133 183.938613,4.6356133 183.881613,4.9376133 L177.174613,41.0986133 C177.118613,41.4016133 177.026613,41.4016133 176.970613,41.0986133 L170.262613,4.9376133 C170.206613,4.6356133 169.908613,4.3876133 169.601613,4.3876133 L159.449613,4.3876133 C159.142613,4.3876133 158.890613,4.6396133 158.890613,4.9476133 L158.890613,63.9686133 C158.890613,64.2756133 159.142613,64.5276133 159.449613,64.5276133 L166.722613,64.5276133 C167.030613,64.5276133 167.282613,64.2756133 167.282613,63.9686133 L167.282613,27.4396133 C167.282613,27.1316133 167.331613,27.1266133 167.392613,27.4286133 L173.270613,56.7646133 C173.330613,57.0666133 173.631613,57.3136133 173.939613,57.3136133 L180.205613,57.3136133 C180.513613,57.3136133 180.814613,57.0666133 180.874613,56.7646133 L186.752613,27.4286133 C186.813613,27.1266133 186.862613,27.1316133 186.862613,27.4386133 L186.862613,63.9686133 C186.862613,64.2756133 187.114613,64.5276133 187.421613,64.5276133 L194.694613,64.5276133 C195.002613,64.5276133 195.253613,64.2756133 195.253613,63.9686133 L195.253613,4.9476133 C195.253613,4.6396133 195.002613,4.3876133 194.694613,4.3876133 L184.543613,4.3876133 Z" id="Fill-192"></path>
                <path d="M120.848913,4.9472133 C120.848913,4.6392133 120.596913,4.3872133 120.288913,4.3872133 L113.015913,4.3872133 C112.708913,4.3872133 112.456913,4.6392133 112.456913,4.9472133 L112.456913,63.9682133 C112.456913,64.2762133 112.708913,64.5282133 113.015913,64.5282133 L120.288913,64.5282133 C120.596913,64.5282133 120.848913,64.2762133 120.848913,63.9682133 L120.848913,4.9472133 Z" id="Fill-194"></path>
                <path d="M105.464113,12.2196133 C105.772113,12.2196133 106.024113,11.9686133 106.024113,11.6606133 L106.024113,4.9476133 C106.024113,4.6396133 105.772113,4.3876133 105.464113,4.3876133 L83.6461129,4.3876133 C83.3381129,4.3876133 83.0871129,4.6396133 83.0871129,4.9476133 L83.0871129,63.9686133 C83.0871129,64.2756133 83.3381129,64.5276133 83.6461129,64.5276133 L90.9191129,64.5276133 C91.2261129,64.5276133 91.4781129,64.2756133 91.4781129,63.9686133 L91.4781129,36.7336133 L104.345113,36.7336133 C104.653113,36.7336133 104.904113,36.4816133 104.904113,36.1746133 L104.904113,30.0206133 C104.904113,29.7126133 104.653113,29.4606133 104.345113,29.4606133 L91.4781129,29.4606133 L91.4781129,12.2196133 L105.464113,12.2196133 Z" id="Fill-196"></path>
                <path d="M259.456713,25.6176133 C259.456713,28.7026133 256.946713,31.7716133 253.862713,31.7716133 L249.946713,31.7716133 L249.946713,11.6606133 L253.862713,11.6606133 C256.946713,11.6606133 259.456713,14.7296133 259.456713,17.8146133 L259.456713,25.6176133 Z M254.433713,4.3996133 L242.113713,4.3996133 C241.804713,4.3996133 241.554713,4.6496133 241.554713,4.9586133 L241.554713,63.9816133 C241.554713,64.2896133 241.804713,64.5396133 242.113713,64.5396133 L249.387713,64.5396133 C249.695713,64.5396133 249.946713,64.2896133 249.946713,63.9816133 L249.946713,39.0446133 L253.862713,39.0446133 C261.586713,39.0446133 267.848713,32.7826133 267.848713,25.0586133 L267.848713,17.8146133 C267.848713,10.4056133 261.842713,4.3996133 254.433713,4.3996133 L254.433713,4.3996133 Z" id="Fill-198"></path>
                <path d="M152.457213,56.6732133 L138.471213,56.6732133 L138.471213,4.9472133 C138.471213,4.6392133 138.219213,4.3872133 137.912213,4.3872133 L130.639213,4.3872133 C130.331213,4.3872133 130.079213,4.6392133 130.079213,4.9472133 L130.079213,63.9682133 C130.079213,64.2762133 130.331213,64.5272133 130.639213,64.5272133 L137.912213,64.5272133 C138.219213,64.5272133 138.471213,64.5222133 138.471213,64.5162133 C138.471213,64.5102133 138.723213,64.5052133 139.030213,64.5052133 L152.457213,64.5052133 C152.765213,64.5052133 153.016213,64.2532133 153.016213,63.9452133 L153.016213,57.2322133 C153.016213,56.9242133 152.765213,56.6732133 152.457213,56.6732133" id="Fill-200"></path>
                <path d="M213.738913,41.6493133 C213.731913,41.6493133 213.727913,41.6443133 213.728913,41.6373133 L217.855913,15.5763133 L222.557913,41.6493133 L213.738913,41.6493133 Z M234.650913,64.5273133 C234.957913,64.5273133 235.165913,64.2793133 235.112913,63.9763133 L224.702913,4.9393133 C224.648913,4.6353133 224.353913,4.3873133 224.045913,4.3873133 L211.691913,4.3873133 C211.383913,4.3873133 211.092913,4.6363133 211.044913,4.9403133 L201.694913,63.9753133 C201.646913,64.2783133 201.858913,64.5273133 202.166913,64.5273133 L209.543913,64.5273133 C209.851913,64.5273133 210.142913,64.2783133 210.190913,63.9753133 L212.486913,49.4813133 L223.969913,49.4813133 L226.584913,63.9773133 C226.638913,64.2793133 226.935913,64.5273133 227.242913,64.5273133 L234.650913,64.5273133 Z" id="Fill-202"></path>
                <path d="M286.525113,28.2338133 C284.991113,26.3428133 283.542113,24.5548133 282.387113,22.9508133 C282.301113,22.8188133 280.629113,20.7338133 280.629113,18.0928133 C280.629113,15.2298133 282.502113,13.5028133 282.502113,13.5028133 L282.502113,13.5028133 C283.387113,12.6128133 284.620113,12.0698133 285.978113,12.1008133 C287.946113,12.1448133 289.505113,13.7868133 289.505113,15.7558133 L289.505113,20.0668133 C289.505113,20.3758133 289.755113,20.6268133 290.064113,20.6268133 L297.338113,20.6268133 C297.647113,20.6268133 297.897113,20.3758133 297.897113,20.0668133 L297.897113,15.7388133 C297.897113,9.1008133 292.501113,3.7008133 285.869113,3.7008133 C278.620113,3.7008133 272.748113,9.6038133 272.748113,16.8588133 L272.748113,16.8868133 C272.748113,19.3108133 272.773113,23.1358133 275.900113,27.3428133 C277.085113,28.9378133 278.816113,31.1658133 280.444113,33.1738133 C285.004113,38.7968133 290.400113,45.7958133 290.400113,51.1848133 C290.400113,54.3028133 287.866113,56.8398133 284.750113,56.8398133 L284.750113,56.8538133 L284.746113,56.8368133 C282.278113,56.8368133 280.271113,54.8268133 280.271113,52.3568133 L280.271113,47.4838133 C280.271113,47.1748133 280.020113,46.9248133 279.712113,46.9248133 L272.468113,46.9248133 C272.159113,46.9248133 271.909113,47.1748133 271.909113,47.4838133 L271.909113,52.3568133 C271.909113,59.4578133 277.651113,65.2348133 284.746113,65.2348133 L284.750113,65.2118133 L284.750113,65.2388133 C292.493113,65.2388133 298.762113,58.9348133 298.762113,51.1848133 C298.762113,43.0138133 292.144113,35.1618133 286.525113,28.2338133" id="Fill-204"></path>
            </g>
        </g>
    </g>
</svg>